<?xml version="1.0" encoding="UTF-8"?>
<svg version="1.1" xmlns="http://www.w3.org/2000/svg" width="500" height="500">
<path d="M0 0 C0.99435059 0.21430664 1.98870117 0.42861328 3.01318359 0.64941406 C23.03123189 5.12829346 41.95021167 12.29398175 60 22 C60.64743164 22.34111816 61.29486328 22.68223633 61.96191406 23.03369141 C77.84366043 31.42810535 92.11059575 41.72616534 105.50439453 53.671875 C106.86386528 54.87910988 108.24154184 56.06576468 109.62109375 57.25 C113.83350599 60.88702372 117.62563464 64.64972605 121.2109375 68.90625 C122.43041215 70.3334081 123.68792852 71.72871479 124.9765625 73.09375 C153.23557044 103.09967843 170.83973799 142.99390674 179 183 C179.24991699 184.18698486 179.24991699 184.18698486 179.50488281 185.39794922 C185.17673186 213.63389337 184.05870286 245.9519867 178 274 C177.67854004 275.49152588 177.67854004 275.49152588 177.35058594 277.01318359 C172.87170654 297.03123189 165.70601825 315.95021167 156 334 C155.65888184 334.64743164 155.31776367 335.29486328 154.96630859 335.96191406 C146.57189465 351.84366043 136.27383466 366.11059575 124.328125 379.50439453 C123.12089012 380.86386528 121.93423532 382.24154184 120.75 383.62109375 C117.11297628 387.83350599 113.35027395 391.62563464 109.09375 395.2109375 C107.6665919 396.43041215 106.27128521 397.68792852 104.90625 398.9765625 C74.90032157 427.23557044 35.00609326 444.83973799 -5 453 C-6.18698486 453.24991699 -6.18698486 453.24991699 -7.39794922 453.50488281 C-35.63389337 459.17673186 -67.9519867 458.05870286 -96 452 C-97.49152588 451.67854004 -97.49152588 451.67854004 -99.01318359 451.35058594 C-114.01617199 447.99378638 -130.27091685 443.79381444 -143.59889221 435.90447998 C-153.28397822 430.39123348 -159.8811023 429.18028724 -170.66017151 431.98904419 C-172.28549145 432.45249527 -173.91047833 432.91711573 -175.53515625 433.3828125 C-177.26808935 433.83336505 -179.00238107 434.27871991 -180.73789978 434.71920776 C-185.27887285 435.88620453 -189.79851436 437.12097028 -194.31689453 438.37219238 C-198.84314582 439.61322883 -203.3858001 440.79058051 -207.92773438 441.97265625 C-214.87346767 443.78835491 -221.81166535 445.62986285 -228.74267578 447.50097656 C-229.94714324 447.82599592 -229.94714324 447.82599592 -231.17594337 448.15758133 C-234.12594541 448.95386511 -237.0758969 449.75033572 -240.02571869 450.54728699 C-243.96926389 451.6108141 -247.91819137 452.6515452 -251.87109375 453.6796875 C-252.76659439 453.92405548 -253.66209503 454.16842346 -254.58473206 454.42019653 C-261.60570389 456.22278637 -269.70359774 457.93906015 -276.1875 454.125 C-279.71785569 448.03817984 -278.32648263 441.74039161 -276.65640831 435.11978436 C-275.61633261 431.2266255 -274.51108511 427.35339516 -273.3984375 423.48046875 C-272.91844535 421.77418464 -272.43959561 420.06757879 -271.96182251 418.360672 C-270.70314683 413.87581583 -269.42893715 409.39552035 -268.15136719 404.91601562 C-266.87393143 400.42651185 -265.61153092 395.93278932 -264.34765625 391.43945312 C-256.72280837 364.37261392 -256.72280837 364.37261392 -253.91503906 354.98291016 C-253.47630966 353.50278191 -253.47630966 353.50278191 -253.02871704 351.99275208 C-252.51791347 350.27853339 -251.99802819 348.56697579 -251.46615601 346.85917664 C-249.26330293 339.45114246 -251.07753341 335.5011547 -254.5625 328.9375 C-268.74398826 301.2665389 -277.94543 269.90477267 -278.23828125 238.6640625 C-278.25297203 237.36089584 -278.25297203 237.36089584 -278.26795959 236.03140259 C-278.44398187 216.35261585 -278.19599602 197.31946418 -274 178 C-273.78569336 177.00709961 -273.57138672 176.01419922 -273.35058594 174.99121094 C-268.87200992 154.97125904 -261.70689646 136.05142148 -252 118 C-251.65888184 117.35256836 -251.31776367 116.70513672 -250.96630859 116.03808594 C-242.57189465 100.15633957 -232.27383466 85.88940425 -220.328125 72.49560547 C-219.12089012 71.13613472 -217.93423532 69.75845816 -216.75 68.37890625 C-213.11297628 64.16649401 -209.35027395 60.37436536 -205.09375 56.7890625 C-203.6665919 55.56958785 -202.27128521 54.31207148 -200.90625 53.0234375 C-170.90032157 24.76442956 -131.00609326 7.16026201 -91 -1 C-89.81301514 -1.24991699 -89.81301514 -1.24991699 -88.60205078 -1.50488281 C-60.36610663 -7.17673186 -28.0480133 -6.05870286 0 0 Z M-149.42919922 125.54052734 C-160.86044344 138.91922747 -167.62274793 153.25136653 -167.5 171.125 C-167.49355469 172.12345947 -167.48710937 173.12191895 -167.48046875 174.15063477 C-166.43396616 217.13641713 -127.04854569 256.07009678 -98.19091797 283.94970703 C-93.6086561 288.23785448 -88.73491361 292.08537624 -83.66796875 295.78076172 C-81.98216213 297.01303898 -80.31905295 298.27206555 -78.65625 299.53515625 C-48.9975445 321.74817952 -10.27540414 337.69153245 27 335 C36.17133827 333.55021076 44.45570672 329.27582021 52 324 C52.79148437 323.46503906 53.58296875 322.93007813 54.3984375 322.37890625 C64.29450665 315.26096947 69.00915406 305.85851709 71 294 C71.18842594 291.65005929 71.30946966 289.29407197 71.375 286.9375 C71.44847656 285.12572266 71.44847656 285.12572266 71.5234375 283.27734375 C71.32824694 279.88308792 71.32824694 279.88308792 68.80273438 277.9753418 C66.14057167 276.09907364 63.54102214 274.5766599 60.6328125 273.1171875 C59.59294189 272.59406982 58.55307129 272.07095215 57.48168945 271.53198242 C56.37398193 270.98517822 55.26627441 270.43837402 54.125 269.875 C52.9805542 269.30821533 51.8361084 268.74143066 50.65698242 268.1574707 C42.93563232 264.3672799 35.16926302 260.68867404 27.3125 257.1875 C26.37615723 256.76130371 25.43981445 256.33510742 24.47509766 255.89599609 C19.53523664 253.74309337 15.49111965 252.15467496 10 253 C7.97181859 254.32450545 7.97181859 254.32450545 6.5625 256.375 C5.98242188 257.10847656 5.40234375 257.84195313 4.8046875 258.59765625 C4.20914063 259.39042969 3.61359375 260.18320312 3 261 C0.3587095 264.3541074 -2.31241549 267.68289119 -5 271 C-5.80824219 272.01707031 -6.61648438 273.03414062 -7.44921875 274.08203125 C-8.29097656 275.08621094 -9.13273438 276.09039062 -10 277.125 C-10.763125 278.05570313 -11.52625 278.98640625 -12.3125 279.9453125 C-15.26123628 282.19972425 -17.10119575 282.65732509 -20.80029297 282.41308594 C-25.00494926 281.62348789 -28.71893458 279.89344568 -32.5625 278.0625 C-33.87468506 277.45124268 -33.87468506 277.45124268 -35.21337891 276.82763672 C-48.72936939 270.41155284 -60.51253148 262.55142089 -72 253 C-72.7940625 252.34902344 -73.588125 251.69804687 -74.40625 251.02734375 C-79.09656682 247.06763398 -83.11494769 242.74498483 -87 238 C-87.4115332 237.50081055 -87.82306641 237.00162109 -88.24707031 236.48730469 C-106.88589508 213.76325806 -106.88589508 213.76325806 -107 205 C-104.65594782 200.62106319 -101.48893831 197.25120703 -98.0625 193.6875 C-90.81476732 185.87395761 -90.81476732 185.87395761 -87.71630859 175.97143555 C-88.08327747 170.83418714 -89.76371695 166.88171656 -91.796875 162.19140625 C-92.18691711 161.26585434 -92.57695923 160.34030243 -92.9788208 159.38670349 C-94.22426634 156.44021802 -95.48713436 153.50155467 -96.75 150.5625 C-97.58442059 148.5909546 -98.41776498 146.61895335 -99.25 144.64648438 C-104.53868392 129.27323037 -104.53868392 129.27323037 -114 117 C-116.87001756 116.31256609 -119.68163784 116.1573108 -122.625 116.0625 C-123.83397949 116.01295166 -123.83397949 116.01295166 -125.06738281 115.96240234 C-135.28648732 115.70929122 -142.3654724 117.92656831 -149.42919922 125.54052734 Z " fill="#FFFFFF" transform="translate(298,24)"/>
</svg>
