<?xml version="1.0" encoding="UTF-8"?>
<svg version="1.1" xmlns="http://www.w3.org/2000/svg" width="500" height="500">
<path d="M0 0 C2.0585568 -0.00571592 4.11711043 -0.01268485 6.17565918 -0.02079773 C11.72137868 -0.03861157 17.26693892 -0.03758279 22.81267834 -0.03185534 C27.46414184 -0.02874563 32.11557553 -0.0348758 36.76703477 -0.04089409 C47.75291863 -0.05489977 58.73872467 -0.05341175 69.72460938 -0.04199219 C81.00812663 -0.03052146 92.2914059 -0.0445783 103.57489181 -0.07138866 C113.30794742 -0.0936379 123.04092883 -0.10016216 132.77400804 -0.09431225 C138.56704554 -0.09096267 144.35993067 -0.09322313 150.15294647 -0.11056328 C155.6065761 -0.12617764 161.05985694 -0.12191829 166.51347351 -0.10325813 C168.49820648 -0.09961164 170.48296614 -0.10256331 172.46767426 -0.11314392 C188.97635808 -0.19433336 205.37234867 1.517728 220.85253906 7.65405273 C222.01088257 8.099021 222.01088257 8.099021 223.19262695 8.55297852 C240.04782649 15.21452273 253.84895518 24.977018 267.04003906 37.40405273 C267.70390625 38.0034668 268.36777344 38.60288086 269.05175781 39.22045898 C283.09779867 52.41177119 292.75953471 69.88682486 298.91503906 87.96655273 C299.18928711 88.76786621 299.46353516 89.56917969 299.74609375 90.39477539 C304.55137937 105.37473101 305.48361043 119.77255692 305.4440918 135.36401367 C305.44980771 137.42257047 305.45677665 139.4811241 305.46488953 141.53967285 C305.48270337 147.08539235 305.48167459 152.63095259 305.47594714 158.17669201 C305.47283742 162.82815551 305.4789676 167.47958921 305.48498589 172.13104844 C305.49899157 183.1169323 305.49750355 194.10273834 305.48608398 205.08862305 C305.47461325 216.3721403 305.48867009 227.65541957 305.51548046 238.93890548 C305.5377297 248.67196109 305.54425396 258.40494251 305.53840405 268.13802171 C305.53505447 273.93105921 305.53731493 279.72394435 305.55465508 285.51696014 C305.57026944 290.97058978 305.56601009 296.42387061 305.54734993 301.87748718 C305.54370344 303.86222015 305.54665511 305.84697981 305.55723572 307.83168793 C305.63842516 324.34037175 303.92636379 340.73636234 297.79003906 356.21655273 C297.3450708 357.37489624 297.3450708 357.37489624 296.89111328 358.55664062 C290.22956907 375.41184016 280.46707379 389.21296885 268.04003906 402.40405273 C267.440625 403.06791992 266.84121094 403.73178711 266.22363281 404.41577148 C253.03232061 418.46181234 235.55726694 428.12354838 217.47753906 434.27905273 C216.67622559 434.55330078 215.87491211 434.82754883 215.04931641 435.11010742 C200.06936079 439.91539305 185.67153488 440.8476241 170.08007812 440.80810547 C168.02152133 440.81382139 165.96296769 440.82079032 163.90441895 440.8289032 C158.35869945 440.84671704 152.8131392 440.84568826 147.26739979 440.83996081 C142.61593629 440.8368511 137.96450259 440.84298127 133.31304336 440.84899956 C122.32715949 440.86300524 111.34135346 440.86151722 100.35546875 440.85009766 C89.07195149 440.83862692 77.78867222 440.85268377 66.50518632 440.87949413 C56.77213071 440.90174337 47.03914929 440.90826763 37.30607009 440.90241772 C31.51303258 440.89906814 25.72014745 440.9013286 19.92713165 440.91866875 C14.47350202 440.93428311 9.02022119 440.93002376 3.56660461 440.9113636 C1.58187165 440.90771711 -0.40288802 440.91066878 -2.38759613 440.92124939 C-18.89627995 441.00243883 -35.29227054 439.29037747 -50.77246094 433.15405273 C-51.93080444 432.70908447 -51.93080444 432.70908447 -53.11254883 432.25512695 C-69.96774837 425.59358274 -83.76887706 415.83108747 -96.95996094 403.40405273 C-97.62382813 402.80463867 -98.28769531 402.20522461 -98.97167969 401.58764648 C-113.01772054 388.39633428 -122.67945658 370.92128061 -128.83496094 352.84155273 C-129.10920898 352.04023926 -129.38345703 351.23892578 -129.66601562 350.41333008 C-134.47130125 335.43337446 -135.40353231 321.03554855 -135.36401367 305.4440918 C-135.36972959 303.385535 -135.37669853 301.32698136 -135.3848114 299.26843262 C-135.40262524 293.72271312 -135.40159647 288.17715287 -135.39586902 282.63141346 C-135.3927593 277.97994996 -135.39888947 273.32851626 -135.40490776 268.67705703 C-135.41891344 257.69117317 -135.41742542 246.70536713 -135.40600586 235.71948242 C-135.39453513 224.43596517 -135.40859197 213.1526859 -135.43540233 201.86919999 C-135.45765158 192.13614438 -135.46417583 182.40316296 -135.45832592 172.67008376 C-135.45497635 166.87704626 -135.4572368 161.08416112 -135.47457695 155.29114532 C-135.49019132 149.83751569 -135.48593196 144.38423486 -135.4672718 138.93061829 C-135.46362532 136.94588532 -135.46657699 134.96112566 -135.47715759 132.97641754 C-135.55834703 116.46773372 -133.84628567 100.07174313 -127.70996094 84.59155273 C-127.41331543 83.81932373 -127.11666992 83.04709473 -126.81103516 82.25146484 C-120.14949095 65.3962653 -110.38699567 51.59513662 -97.95996094 38.40405273 C-97.36054687 37.74018555 -96.76113281 37.07631836 -96.14355469 36.39233398 C-82.95224248 22.34629313 -65.47718882 12.68455709 -47.39746094 6.52905273 C-46.59614746 6.25480469 -45.79483398 5.98055664 -44.96923828 5.69799805 C-29.98928266 0.89271242 -15.59145676 -0.03951863 0 0 Z M188.04003906 89.96655273 C185.13399801 95.22321403 184.96757236 100.57443014 186.04003906 106.40405273 C188.24704068 111.63402488 191.71082738 116.32350957 196.93066406 118.80639648 C202.55780008 120.40075169 208.23628871 120.58129509 213.67285156 118.29858398 C218.48928504 115.33401354 222.46442567 111.96504119 224.04003906 106.40405273 C225.03255468 100.11519272 224.8667946 94.91045717 221.47753906 89.40405273 C217.65421001 84.51622372 214.41832936 81.88866265 208.20800781 80.99780273 C199.30074638 80.54963864 193.42852443 82.77690234 188.04003906 89.96655273 Z M7.04003906 143.40405273 C-0.29137149 150.71314545 -5.91040588 158.37606035 -10.95996094 167.40405273 C-11.49363281 168.32444336 -12.02730469 169.24483398 -12.57714844 170.19311523 C-25.09770153 193.22314813 -28.23153375 223.17099921 -21.21386719 248.37670898 C-20.80332707 249.72144728 -20.38536674 251.06394297 -19.95996094 252.40405273 C-19.64647705 253.42281494 -19.64647705 253.42281494 -19.32666016 254.4621582 C-14.55330565 269.56884194 -6.56034898 282.64988096 4.04003906 294.40405273 C4.79800781 295.24452148 5.55597656 296.08499023 6.33691406 296.95092773 C26.45860091 318.12472892 54.37218871 329.19269206 83.26904297 330.36547852 C95.91404987 330.54150592 108.09492182 328.55005217 120.04003906 324.40405273 C121.63332031 323.88198242 121.63332031 323.88198242 123.25878906 323.34936523 C149.5087485 314.11090864 171.83199508 293.27020685 184.04003906 268.40405273 C195.02972206 243.14969202 198.49059476 215.02492207 190.04003906 188.40405273 C189.72655518 187.38529053 189.72655518 187.38529053 189.40673828 186.34594727 C184.63338378 171.23926353 176.6404271 158.15822451 166.04003906 146.40405273 C165.28207031 145.56358398 164.52410156 144.72311523 163.74316406 143.85717773 C143.61114054 122.67249939 115.7398863 111.42441165 86.73632812 110.43530273 C56.17532113 110.08110055 28.78797452 122.27454199 7.04003906 143.40405273 Z " fill="#FFFFFF" transform="translate(164.9599609375,29.595947265625)"/>
<path d="M0 0 C2.4326433 1.91056917 4.75364666 3.90013189 7.06640625 5.953125 C8.071875 6.74589844 8.071875 6.74589844 9.09765625 7.5546875 C24.92395041 20.30364668 35.37692769 40.98391777 38.06640625 60.953125 C40.19360372 85.61095037 36.61650695 109.57429039 21.00390625 129.453125 C19.70160141 130.96198496 18.38974794 132.4626811 17.06640625 133.953125 C16.52628906 134.63503906 15.98617187 135.31695312 15.4296875 136.01953125 C2.40894133 152.12994601 -17.93508212 161.40825694 -37.93359375 164.953125 C-42.48508204 165.38466618 -46.98840418 165.47869249 -51.55859375 165.453125 C-53.38729004 165.44345703 -53.38729004 165.44345703 -55.25292969 165.43359375 C-76.25430137 165.01279115 -95.17561158 157.94118888 -110.93359375 143.953125 C-111.60390625 143.42460937 -112.27421875 142.89609375 -112.96484375 142.3515625 C-128.79113791 129.60260332 -139.24411519 108.92233223 -141.93359375 88.953125 C-144.06079122 64.29529963 -140.48369445 40.33195961 -124.87109375 20.453125 C-123.56859166 18.94443532 -122.25676614 17.4437192 -120.93359375 15.953125 C-120.40507812 15.2828125 -119.8765625 14.6125 -119.33203125 13.921875 C-91.27616577 -20.90609594 -35.55651168 -24.80907073 0 0 Z " fill="#FFFFFF" transform="translate(301.93359375,175.046875)"/>
</svg>
